<svg width="24px" height="24px" viewBox="0 0 24 24">
    <path d="M17.6753125,19.6417383 C19.4101758,19.6417383 20.273457,18.778457 20.273457,17.0684961 L20.273457,6.93324219 C20.273457,5.22328125 19.4101758,4.36 17.6753125,4.36 L6.33644531,4.36 C4.60158203,4.36 3.73,5.21498047 3.73,6.93324219 L3.73,17.0684961 C3.73,18.7867578 4.60158203,19.6417383 6.33644531,19.6417383 L17.6753125,19.6417383 Z M17.7832227,18.3053125 L6.21193359,18.3053125 C5.47316406,18.3053125 5.06642578,17.9151758 5.06642578,17.1432031 L5.06642578,9.31556641 C5.06642578,8.55189453 5.47316406,8.15345703 6.21193359,8.15345703 L17.7832227,8.15345703 C18.5219922,8.15345703 18.9370312,8.55189453 18.9370312,9.31556641 L18.9370312,17.1432031 C18.9370312,17.9151758 18.5219922,18.3053125 17.7832227,18.3053125 Z M10.8686719,11.1334375 C11.1591992,11.1334375 11.2588086,11.0504297 11.2588086,10.7599023 L11.2588086,10.2701563 C11.2588086,9.97962891 11.1591992,9.88832031 10.8686719,9.88832031 L10.3789258,9.88832031 C10.0883984,9.88832031 9.98878906,9.97962891 9.98878906,10.2701563 L9.98878906,10.7599023 C9.98878906,11.0504297 10.0883984,11.1334375 10.3789258,11.1334375 L10.8686719,11.1334375 Z M13.6245312,11.1334375 C13.9150586,11.1334375 14.014668,11.0504297 14.014668,10.7599023 L14.014668,10.2701563 C14.014668,9.97962891 13.9150586,9.88832031 13.6245312,9.88832031 L13.1430859,9.88832031 C12.8442578,9.88832031 12.7529492,9.97962891 12.7529492,10.2701563 L12.7529492,10.7599023 C12.7529492,11.0504297 12.8442578,11.1334375 13.1430859,11.1334375 L13.6245312,11.1334375 Z M16.3886914,11.1334375 C16.6792187,11.1334375 16.7705273,11.0504297 16.7705273,10.7599023 L16.7705273,10.2701563 C16.7705273,9.97962891 16.6792187,9.88832031 16.3886914,9.88832031 L15.8989453,9.88832031 C15.608418,9.88832031 15.5088086,9.97962891 15.5088086,10.2701563 L15.5088086,10.7599023 C15.5088086,11.0504297 15.608418,11.1334375 15.8989453,11.1334375 L16.3886914,11.1334375 Z M8.1128125,13.847793 C8.40333984,13.847793 8.49464844,13.7647852 8.49464844,13.4742578 L8.49464844,12.9845117 C8.49464844,12.6939844 8.40333984,12.6109766 8.1128125,12.6109766 L7.62306641,12.6109766 C7.33253906,12.6109766 7.23292969,12.6939844 7.23292969,12.9845117 L7.23292969,13.4742578 C7.23292969,13.7647852 7.33253906,13.847793 7.62306641,13.847793 L8.1128125,13.847793 Z M10.8686719,13.847793 C11.1591992,13.847793 11.2588086,13.7647852 11.2588086,13.4742578 L11.2588086,12.9845117 C11.2588086,12.6939844 11.1591992,12.6109766 10.8686719,12.6109766 L10.3789258,12.6109766 C10.0883984,12.6109766 9.98878906,12.6939844 9.98878906,12.9845117 L9.98878906,13.4742578 C9.98878906,13.7647852 10.0883984,13.847793 10.3789258,13.847793 L10.8686719,13.847793 Z M13.6245312,13.847793 C13.9150586,13.847793 14.014668,13.7647852 14.014668,13.4742578 L14.014668,12.9845117 C14.014668,12.6939844 13.9150586,12.6109766 13.6245312,12.6109766 L13.1430859,12.6109766 C12.8442578,12.6109766 12.7529492,12.6939844 12.7529492,12.9845117 L12.7529492,13.4742578 C12.7529492,13.7647852 12.8442578,13.847793 13.1430859,13.847793 L13.6245312,13.847793 Z M16.3886914,13.847793 C16.6792187,13.847793 16.7705273,13.7647852 16.7705273,13.4742578 L16.7705273,12.9845117 C16.7705273,12.6939844 16.6792187,12.6109766 16.3886914,12.6109766 L15.8989453,12.6109766 C15.608418,12.6109766 15.5088086,12.6939844 15.5088086,12.9845117 L15.5088086,13.4742578 C15.5088086,13.7647852 15.608418,13.847793 15.8989453,13.847793 L16.3886914,13.847793 Z M8.1128125,16.5704492 C8.40333984,16.5704492 8.49464844,16.4791406 8.49464844,16.1886133 L8.49464844,15.6988672 C8.49464844,15.4083398 8.40333984,15.325332 8.1128125,15.325332 L7.62306641,15.325332 C7.33253906,15.325332 7.23292969,15.4083398 7.23292969,15.6988672 L7.23292969,16.1886133 C7.23292969,16.4791406 7.33253906,16.5704492 7.62306641,16.5704492 L8.1128125,16.5704492 Z M10.8686719,16.5704492 C11.1591992,16.5704492 11.2588086,16.4791406 11.2588086,16.1886133 L11.2588086,15.6988672 C11.2588086,15.4083398 11.1591992,15.325332 10.8686719,15.325332 L10.3789258,15.325332 C10.0883984,15.325332 9.98878906,15.4083398 9.98878906,15.6988672 L9.98878906,16.1886133 C9.98878906,16.4791406 10.0883984,16.5704492 10.3789258,16.5704492 L10.8686719,16.5704492 Z M13.6245312,16.5704492 C13.9150586,16.5704492 14.014668,16.4791406 14.014668,16.1886133 L14.014668,15.6988672 C14.014668,15.4083398 13.9150586,15.325332 13.6245312,15.325332 L13.1430859,15.325332 C12.8442578,15.325332 12.7529492,15.4083398 12.7529492,15.6988672 L12.7529492,16.1886133 C12.7529492,16.4791406 12.8442578,16.5704492 13.1430859,16.5704492 L13.6245312,16.5704492 Z"></path>
</svg>