<svg width="14px" height="14px" viewBox="0 0 14 14" version="1.1" xmlns="http://www.w3.org/2000/svg" xmlns:xlink="http://www.w3.org/1999/xlink">
        <path d="M7,0 C7.41421356,0 7.75,0.335786438 7.75,0.75 L7.75,6.25 L13.25,6.25 C13.6642136,6.25 14,6.58578644 14,7 C14,7.41421356 13.6642136,7.75 13.25,7.75 L7.75,7.75 L7.75,13.25 C7.75,13.6642136 7.41421356,14 7,14 C6.58578644,14 6.25,13.6642136 6.25,13.25 L6.25,7.75 L0.75,7.75 C0.335786438,7.75 0,7.41421356 0,7 C0,6.58578644 0.335786438,6.25 0.75,6.25 L6.25,6.25 L6.25,0.75 C6.25,0.335786438 6.58578644,0 7,0 Z"></path>
</svg>