<svg width="24px" height="24px" viewBox="0 0 24 24">
        <path d="M12.0067969,20.4736328 C16.6386328,20.4736328 20.4735938,16.6386719 20.4735938,12.0068359 C20.4735938,7.38330078 16.630332,3.54003906 11.9984961,3.54003906 C7.37496094,3.54003906 3.54,7.38330078 3.54,12.0068359 C3.54,16.6386719 7.38326172,20.4736328 12.0067969,20.4736328 Z M14.9784766,15.6923828 C14.7792578,15.6923828 14.6049414,15.609375 14.4804297,15.4848633 L11.9984961,12.9946289 L9.52486328,15.4848633 C9.40035156,15.6176758 9.22603516,15.6923828 9.02681641,15.6923828 C8.64498047,15.6923828 8.32955078,15.3769531 8.32955078,14.9868164 C8.32955078,14.7958984 8.40425781,14.6298828 8.53707031,14.5053711 L11.0190039,12.0151367 L8.53707031,9.52490234 C8.40425781,9.40869141 8.32955078,9.234375 8.32955078,9.04345703 C8.32955078,8.66162109 8.64498047,8.35449219 9.02681641,8.35449219 C9.22603516,8.35449219 9.38375,8.42919922 9.50826172,8.56201172 L11.9984961,11.0439453 L14.505332,8.55371094 C14.6464453,8.40429688 14.8041602,8.33789062 14.9867773,8.33789062 C15.3769141,8.33789062 15.684043,8.65332031 15.684043,9.03515625 C15.684043,9.22607422 15.6259375,9.38378906 15.4765234,9.51660156 L12.9862891,12.0151367 L15.4682227,14.4887695 C15.6010352,14.621582 15.6757422,14.7875977 15.6757422,14.9868164 C15.6757422,15.3769531 15.3686133,15.6923828 14.9784766,15.6923828 Z"></path>
</svg>