<svg width="24px" height="24px" viewBox="0 0 24 24">
    <path d="M19.0977988,19.7597656 C19.6373496,19.7597656 20.0191855,19.3447266 20.0191855,18.8134766 C20.0191855,18.5644531 19.9361777,18.3320312 19.7535605,18.1494141 L15.8438926,14.2314453 C16.6656699,13.1523438 17.155416,11.815918 17.155416,10.3632812 C17.155416,6.85205078 14.2833457,3.97998047 10.7721152,3.97998047 C7.26088477,3.97998047 4.38881445,6.85205078 4.38881445,10.3632812 C4.38881445,13.8745117 7.26088477,16.746582 10.7721152,16.746582 C12.1583457,16.746582 13.436666,16.2983398 14.4825645,15.5512695 L18.4171348,19.4858398 C18.599752,19.668457 18.8404746,19.7597656 19.0977988,19.7597656 Z M10.7721152,15.3686523 C8.03285742,15.3686523 5.76674414,13.1025391 5.76674414,10.3632812 C5.76674414,7.62402344 8.03285742,5.35791016 10.7721152,5.35791016 C13.511373,5.35791016 15.7774863,7.62402344 15.7774863,10.3632812 C15.7774863,13.1025391 13.511373,15.3686523 10.7721152,15.3686523 Z"></path>
</svg>